<svg fill="#4169e1" height="131px" width="131px" version="1.1" id="Layer_1" xmlns="http://www.w3.org/2000/svg" xmlns:xlink="http://www.w3.org/1999/xlink" viewBox="0 0 459.00 459.00" xml:space="preserve" stroke="#4169e1" transform="rotate(0)"><g id="SVGRepo_bgCarrier" stroke-width="0"></g><g id="SVGRepo_tracerCarrier" stroke-linecap="round" stroke-linejoin="round" stroke="#CCCCCC" stroke-width="14.687999999999999"></g><g id="SVGRepo_iconCarrier"> <g> <g> <path d="M229.5,0C102.751,0,0,102.751,0,229.5S102.751,459,229.5,459S459,356.249,459,229.5S356.249,0,229.5,0z M307.293,152.195 l-83.164,189.526c-1.515,3.452-4.995,5.619-8.761,5.454c-3.766-0.165-7.044-2.626-8.252-6.197l-25.779-76.21l-74.52-24.522 c-3.594-1.183-6.086-4.459-6.267-8.238c-0.181-3.779,1.988-7.279,5.452-8.799l189.259-83.046 c3.446-1.512,7.466-0.756,10.127,1.905C308.049,144.729,308.805,148.749,307.293,152.195z"></path> </g> </g> </g></svg>