<svg xmlns="http://www.w3.org/2000/svg" xmlns:xlink="http://www.w3.org/1999/xlink" width="500" zoomAndPan="magnify" viewBox="0 0 375 149.999998" height="200" preserveAspectRatio="xMidYMid meet" version="1.0"><defs><g/><clipPath id="c8fa48c18f"><path d="M 54 93 L 159.75 93 L 159.75 131 L 54 131 Z M 54 93 " clip-rule="nonzero"/></clipPath></defs><path fill="#000000" d="M 110.195312 140.277344 C 112.082031 139.714844 113.921875 139.070312 115.710938 138.351562 C 84.738281 144.480469 53.621094 126.125 44.453125 95.25 C 35.285156 64.378906 51.339844 32.011719 80.640625 20.242188 C 78.746094 20.617188 76.851562 21.078125 74.964844 21.640625 C 42.203125 31.367188 23.53125 65.8125 33.261719 98.574219 C 42.988281 131.335938 77.433594 150.007812 110.195312 140.277344 " fill-opacity="1" fill-rule="nonzero"/><path fill="#fefefe" d="M 33.523438 124.570312 C 35.167969 125.859375 36.855469 127.054688 38.574219 128.160156 C 14.28125 105.148438 11.058594 66.992188 32.121094 40.132812 C 53.183594 13.273438 91.003906 7.296875 119.148438 25.402344 C 117.660156 23.996094 116.101562 22.640625 114.460938 21.355469 C 85.957031 -0.996094 44.734375 3.996094 22.382812 32.496094 C 0.0351562 61 5.023438 102.222656 33.523438 124.570312 " fill-opacity="1" fill-rule="nonzero"/><g clip-path="url(#c8fa48c18f)"><path fill="#fefefe" d="M 94.511719 121.574219 C 77.609375 117.03125 63.707031 106.898438 54.25 93.703125 C 61.703125 110.160156 76.195312 123.273438 95.003906 128.328125 C 119.574219 134.933594 144.660156 125.945312 159.753906 107.421875 C 142.199219 121.882812 118.148438 127.929688 94.511719 121.574219 " fill-opacity="1" fill-rule="nonzero"/></g><g fill="#000000" fill-opacity="1"><g transform="translate(60.49355, 69.522196)"><g><path d="M 16.921875 -10.3125 L 7.25 -10.3125 L 5.4375 0 L 0.359375 0 L 4.75 -25.25 L 20.734375 -25.25 L 20 -21.03125 L 9.109375 -21.03125 L 7.953125 -14.515625 L 17.671875 -14.515625 Z M 16.921875 -10.3125 "/></g></g></g><g fill="#000000" fill-opacity="1"><g transform="translate(77.86128, 69.522196)"><g><path d="M 10.78125 -19.109375 C 12.4375 -19.085938 13.863281 -18.660156 15.0625 -17.828125 C 16.257812 -17.003906 17.132812 -15.867188 17.6875 -14.421875 C 18.25 -12.972656 18.453125 -11.363281 18.296875 -9.59375 C 18.023438 -6.601562 16.984375 -4.1875 15.171875 -2.34375 C 13.367188 -0.5 11.140625 0.394531 8.484375 0.34375 C 6.847656 0.320312 5.4375 -0.09375 4.25 -0.90625 C 3.0625 -1.726562 2.179688 -2.859375 1.609375 -4.296875 C 1.046875 -5.742188 0.84375 -7.34375 1 -9.09375 C 1.300781 -12.1875 2.351562 -14.644531 4.15625 -16.46875 C 5.96875 -18.300781 8.175781 -19.179688 10.78125 -19.109375 Z M 5.84375 -7.296875 C 5.863281 -6.191406 6.125 -5.316406 6.625 -4.671875 C 7.125 -4.035156 7.820312 -3.703125 8.71875 -3.671875 C 10.226562 -3.628906 11.410156 -4.320312 12.265625 -5.75 C 13.117188 -7.175781 13.515625 -9.050781 13.453125 -11.375 C 13.410156 -12.488281 13.140625 -13.375 12.640625 -14.03125 C 12.148438 -14.695312 11.453125 -15.039062 10.546875 -15.0625 C 9.085938 -15.113281 7.921875 -14.429688 7.046875 -13.015625 C 6.171875 -11.597656 5.769531 -9.691406 5.84375 -7.296875 Z M 5.84375 -7.296875 "/></g></g></g><g fill="#000000" fill-opacity="1"><g transform="translate(95.835833, 69.522196)"><g><path d="M 8.265625 -3.671875 C 9.171875 -3.648438 9.921875 -3.894531 10.515625 -4.40625 C 11.117188 -4.925781 11.515625 -5.613281 11.703125 -6.46875 L 16.296875 -6.484375 C 16.222656 -5.171875 15.8125 -3.988281 15.0625 -2.9375 C 14.3125 -1.882812 13.316406 -1.0625 12.078125 -0.46875 C 10.835938 0.125 9.53125 0.398438 8.15625 0.359375 C 5.875 0.328125 4.066406 -0.453125 2.734375 -1.984375 C 1.410156 -3.523438 0.769531 -5.578125 0.8125 -8.140625 L 0.859375 -9.09375 L 0.890625 -9.28125 C 1.203125 -12.332031 2.226562 -14.75 3.96875 -16.53125 C 5.71875 -18.320312 7.875 -19.179688 10.4375 -19.109375 C 12.550781 -19.066406 14.226562 -18.375 15.46875 -17.03125 C 16.71875 -15.695312 17.332031 -13.9375 17.3125 -11.75 L 12.75 -11.75 C 12.75 -12.757812 12.523438 -13.550781 12.078125 -14.125 C 11.640625 -14.707031 10.984375 -15.019531 10.109375 -15.0625 C 7.773438 -15.132812 6.359375 -13.429688 5.859375 -9.953125 C 5.679688 -8.691406 5.617188 -7.628906 5.671875 -6.765625 C 5.785156 -4.742188 6.648438 -3.710938 8.265625 -3.671875 Z M 8.265625 -3.671875 "/></g></g></g><g fill="#000000" fill-opacity="1"><g transform="translate(112.301997, 69.522196)"><g><path d="M 11.671875 -1.9375 C 10.285156 -0.375 8.5625 0.382812 6.5 0.34375 C 4.695312 0.320312 3.332031 -0.320312 2.40625 -1.59375 C 1.476562 -2.863281 1.117188 -4.539062 1.328125 -6.625 L 3.359375 -18.765625 L 8.25 -18.765625 L 6.1875 -6.578125 C 6.144531 -6.191406 6.140625 -5.832031 6.171875 -5.5 C 6.285156 -4.34375 6.925781 -3.75 8.09375 -3.71875 C 9.613281 -3.664062 10.867188 -4.25 11.859375 -5.46875 L 14.203125 -18.765625 L 19.125 -18.765625 L 15.875 0 L 11.3125 0 Z M 11.671875 -1.9375 "/></g></g></g><g fill="#000000" fill-opacity="1"><g transform="translate(130.085834, 69.522196)"><g><path d="M 10.921875 -5.296875 C 11.109375 -6.210938 10.46875 -6.878906 9 -7.296875 L 7.421875 -7.703125 C 3.691406 -8.734375 1.878906 -10.546875 1.984375 -13.140625 C 2.035156 -14.910156 2.816406 -16.351562 4.328125 -17.46875 C 5.835938 -18.582031 7.65625 -19.128906 9.78125 -19.109375 C 11.894531 -19.085938 13.601562 -18.523438 14.90625 -17.421875 C 16.21875 -16.328125 16.882812 -14.867188 16.90625 -13.046875 L 12.046875 -13.0625 C 12.078125 -14.664062 11.28125 -15.476562 9.65625 -15.5 C 8.894531 -15.5 8.234375 -15.304688 7.671875 -14.921875 C 7.109375 -14.546875 6.765625 -14.035156 6.640625 -13.390625 C 6.460938 -12.460938 7.160156 -11.804688 8.734375 -11.421875 L 9.4375 -11.265625 C 11.03125 -10.890625 12.25 -10.453125 13.09375 -9.953125 C 13.9375 -9.460938 14.585938 -8.851562 15.046875 -8.125 C 15.503906 -7.40625 15.710938 -6.535156 15.671875 -5.515625 C 15.640625 -4.328125 15.253906 -3.285156 14.515625 -2.390625 C 13.785156 -1.503906 12.78125 -0.816406 11.5 -0.328125 C 10.226562 0.160156 8.882812 0.382812 7.46875 0.34375 C 5.394531 0.320312 3.660156 -0.269531 2.265625 -1.4375 C 0.878906 -2.613281 0.175781 -4.132812 0.15625 -6 L 4.765625 -5.96875 C 4.816406 -4.175781 5.773438 -3.269531 7.640625 -3.25 C 8.546875 -3.25 9.289062 -3.429688 9.875 -3.796875 C 10.457031 -4.171875 10.804688 -4.671875 10.921875 -5.296875 Z M 10.921875 -5.296875 "/></g></g></g><g fill="#000000" fill-opacity="1"><g transform="translate(146.291932, 69.522196)"><g><path d="M 8.96875 0.34375 C 7.320312 0.332031 5.863281 -0.0664062 4.59375 -0.859375 C 3.332031 -1.648438 2.390625 -2.734375 1.765625 -4.109375 C 1.140625 -5.492188 0.898438 -7.019531 1.046875 -8.6875 L 1.09375 -9.375 C 1.269531 -11.207031 1.800781 -12.882812 2.6875 -14.40625 C 3.570312 -15.9375 4.710938 -17.113281 6.109375 -17.9375 C 7.515625 -18.769531 9.066406 -19.160156 10.765625 -19.109375 C 13.179688 -19.066406 15.007812 -18.179688 16.25 -16.453125 C 17.5 -14.722656 17.972656 -12.535156 17.671875 -9.890625 L 17.390625 -7.75 L 5.890625 -7.75 C 5.847656 -6.539062 6.144531 -5.570312 6.78125 -4.84375 C 7.414062 -4.113281 8.28125 -3.738281 9.375 -3.71875 C 11.15625 -3.664062 12.71875 -4.351562 14.0625 -5.78125 L 16.296875 -3 C 15.597656 -1.9375 14.582031 -1.109375 13.25 -0.515625 C 11.914062 0.078125 10.488281 0.363281 8.96875 0.34375 Z M 10.53125 -15.0625 C 9.625 -15.09375 8.820312 -14.8125 8.125 -14.21875 C 7.425781 -13.625 6.800781 -12.601562 6.25 -11.15625 L 12.96875 -11.15625 L 13.078125 -11.59375 C 13.140625 -12.0625 13.144531 -12.503906 13.09375 -12.921875 C 12.976562 -13.585938 12.691406 -14.109375 12.234375 -14.484375 C 11.785156 -14.859375 11.21875 -15.050781 10.53125 -15.0625 Z M 10.53125 -15.0625 "/></g></g></g><g fill="#000000" fill-opacity="1"><g transform="translate(163.416933, 69.522196)"><g><path d="M 9.359375 -19.125 C 11.109375 -19.082031 12.519531 -18.382812 13.59375 -17.03125 L 15.4375 -26.640625 L 20.34375 -26.640625 L 15.734375 0 L 11.359375 0 L 11.640625 -2.015625 C 10.234375 -0.378906 8.601562 0.410156 6.75 0.359375 C 5.582031 0.347656 4.554688 0.046875 3.671875 -0.546875 C 2.796875 -1.148438 2.117188 -2.015625 1.640625 -3.140625 C 1.160156 -4.273438 0.894531 -5.535156 0.84375 -6.921875 C 0.8125 -7.648438 0.832031 -8.351562 0.90625 -9.03125 L 1 -9.8125 C 1.28125 -11.726562 1.816406 -13.414062 2.609375 -14.875 C 3.398438 -16.332031 4.367188 -17.414062 5.515625 -18.125 C 6.671875 -18.832031 7.953125 -19.164062 9.359375 -19.125 Z M 5.8125 -9.03125 C 5.71875 -8.15625 5.6875 -7.414062 5.71875 -6.8125 C 5.832031 -4.78125 6.65625 -3.75 8.1875 -3.71875 C 9.5625 -3.65625 10.757812 -4.300781 11.78125 -5.65625 L 13.109375 -13.109375 C 12.660156 -14.347656 11.757812 -14.992188 10.40625 -15.046875 C 9.21875 -15.085938 8.226562 -14.628906 7.4375 -13.671875 C 6.644531 -12.722656 6.101562 -11.175781 5.8125 -9.03125 Z M 5.8125 -9.03125 "/></g></g></g><g fill="#fefefe" fill-opacity="1"><g transform="translate(183.002467, 76.655595)"><g><path d="M 18.28125 -15.109375 L 11.53125 -15.109375 L 8.90625 0 L 0.59375 0 L 7.765625 -41.265625 L 21.421875 -41.234375 C 25.992188 -41.234375 29.515625 -40.15625 31.984375 -38 C 34.453125 -35.851562 35.546875 -32.863281 35.265625 -29.03125 C 34.859375 -23.351562 31.832031 -19.410156 26.1875 -17.203125 L 32 -0.453125 L 32 0 L 23.15625 0 Z M 12.71875 -22 L 18.90625 -21.9375 C 21.09375 -21.976562 22.898438 -22.566406 24.328125 -23.703125 C 25.753906 -24.847656 26.609375 -26.40625 26.890625 -28.375 C 27.160156 -30.207031 26.867188 -31.640625 26.015625 -32.671875 C 25.171875 -33.710938 23.820312 -34.273438 21.96875 -34.359375 L 14.875 -34.375 Z M 12.71875 -22 "/></g></g></g><g fill="#fefefe" fill-opacity="1"><g transform="translate(216.4941, 76.655595)"><g><path d="M 14.65625 0.5625 C 11.96875 0.539062 9.585938 -0.113281 7.515625 -1.40625 C 5.453125 -2.695312 3.910156 -4.472656 2.890625 -6.734375 C 1.867188 -8.992188 1.472656 -11.484375 1.703125 -14.203125 L 1.78125 -15.328125 C 2.0625 -18.316406 2.929688 -21.054688 4.390625 -23.546875 C 5.847656 -26.046875 7.71875 -27.96875 10 -29.3125 C 12.289062 -30.664062 14.820312 -31.304688 17.59375 -31.234375 C 21.550781 -31.160156 24.546875 -29.707031 26.578125 -26.875 C 28.609375 -24.050781 29.375 -20.476562 28.875 -16.15625 L 28.421875 -12.671875 L 9.640625 -12.671875 C 9.554688 -10.679688 10.035156 -9.09375 11.078125 -7.90625 C 12.117188 -6.71875 13.535156 -6.101562 15.328125 -6.0625 C 18.242188 -5.988281 20.796875 -7.113281 22.984375 -9.4375 L 26.640625 -4.90625 C 25.484375 -3.164062 23.816406 -1.804688 21.640625 -0.828125 C 19.472656 0.140625 17.144531 0.601562 14.65625 0.5625 Z M 17.203125 -24.625 C 15.734375 -24.664062 14.425781 -24.203125 13.28125 -23.234375 C 12.132812 -22.273438 11.109375 -20.601562 10.203125 -18.21875 L 21.203125 -18.21875 L 21.375 -18.96875 C 21.488281 -19.71875 21.5 -20.429688 21.40625 -21.109375 C 21.207031 -22.210938 20.738281 -23.070312 20 -23.6875 C 19.269531 -24.300781 18.335938 -24.613281 17.203125 -24.625 Z M 17.203125 -24.625 "/></g></g></g><g fill="#fefefe" fill-opacity="1"><g transform="translate(244.487523, 76.655595)"><g><path d="M 17.859375 -8.640625 C 18.160156 -10.148438 17.109375 -11.25 14.703125 -11.9375 L 12.125 -12.578125 C 6.019531 -14.265625 3.054688 -17.234375 3.234375 -21.484375 C 3.328125 -24.378906 4.601562 -26.738281 7.0625 -28.5625 C 9.53125 -30.382812 12.503906 -31.273438 15.984375 -31.234375 C 19.441406 -31.191406 22.238281 -30.273438 24.375 -28.484375 C 26.507812 -26.691406 27.597656 -24.300781 27.640625 -21.3125 L 19.703125 -21.34375 C 19.734375 -23.96875 18.425781 -25.300781 15.78125 -25.34375 C 14.539062 -25.34375 13.460938 -25.03125 12.546875 -24.40625 C 11.628906 -23.78125 11.066406 -22.9375 10.859375 -21.875 C 10.578125 -20.363281 11.71875 -19.296875 14.28125 -18.671875 L 15.421875 -18.421875 C 18.023438 -17.796875 20.015625 -17.082031 21.390625 -16.28125 C 22.773438 -15.476562 23.835938 -14.476562 24.578125 -13.28125 C 25.328125 -12.09375 25.675781 -10.671875 25.625 -9.015625 C 25.5625 -7.066406 24.929688 -5.363281 23.734375 -3.90625 C 22.535156 -2.457031 20.890625 -1.332031 18.796875 -0.53125 C 16.710938 0.257812 14.519531 0.625 12.21875 0.5625 C 8.8125 0.53125 5.972656 -0.441406 3.703125 -2.359375 C 1.441406 -4.285156 0.289062 -6.769531 0.25 -9.8125 L 7.796875 -9.75 C 7.867188 -6.820312 9.4375 -5.335938 12.5 -5.296875 C 13.96875 -5.296875 15.179688 -5.597656 16.140625 -6.203125 C 17.097656 -6.804688 17.671875 -7.617188 17.859375 -8.640625 Z M 17.859375 -8.640625 "/></g></g></g><g fill="#fefefe" fill-opacity="1"><g transform="translate(270.97886, 76.655595)"><g><path d="M 19.078125 -3.171875 C 16.804688 -0.617188 13.988281 0.625 10.625 0.5625 C 7.675781 0.53125 5.445312 -0.519531 3.9375 -2.59375 C 2.425781 -4.675781 1.84375 -7.421875 2.1875 -10.828125 L 5.5 -30.671875 L 13.484375 -30.671875 L 10.125 -10.734375 C 10.039062 -10.117188 10.03125 -9.535156 10.09375 -8.984375 C 10.28125 -7.097656 11.328125 -6.125 13.234375 -6.0625 C 15.710938 -5.988281 17.765625 -6.941406 19.390625 -8.921875 L 23.21875 -30.671875 L 31.265625 -30.671875 L 25.9375 0 L 18.484375 0 Z M 19.078125 -3.171875 "/></g></g></g><g fill="#fefefe" fill-opacity="1"><g transform="translate(300.049256, 76.655595)"><g><path d="M 8.53125 0 L 0.484375 0 L 8.046875 -43.53125 L 16.078125 -43.53125 Z M 8.53125 0 "/></g></g></g><g fill="#fefefe" fill-opacity="1"><g transform="translate(312.54, 76.655595)"><g><path d="M 16.296875 -38.203125 L 14.96875 -30.671875 L 20.0625 -30.671875 L 19.015625 -24.65625 L 13.921875 -24.65625 L 11.3125 -9.296875 C 11.195312 -8.328125 11.269531 -7.585938 11.53125 -7.078125 C 11.800781 -6.578125 12.445312 -6.304688 13.46875 -6.265625 C 13.769531 -6.242188 14.582031 -6.289062 15.90625 -6.40625 L 15.328125 -0.140625 C 13.910156 0.328125 12.378906 0.546875 10.734375 0.515625 C 8.109375 0.472656 6.15625 -0.347656 4.875 -1.953125 C 3.59375 -3.554688 3.0625 -5.726562 3.28125 -8.46875 L 5.921875 -24.65625 L 1.59375 -24.65625 L 2.640625 -30.671875 L 6.96875 -30.671875 L 8.28125 -38.203125 Z M 16.296875 -38.203125 "/></g></g></g><g fill="#fefefe" fill-opacity="1"><g transform="translate(329.111891, 76.655595)"><g><path d="M 17.859375 -8.640625 C 18.160156 -10.148438 17.109375 -11.25 14.703125 -11.9375 L 12.125 -12.578125 C 6.019531 -14.265625 3.054688 -17.234375 3.234375 -21.484375 C 3.328125 -24.378906 4.601562 -26.738281 7.0625 -28.5625 C 9.53125 -30.382812 12.503906 -31.273438 15.984375 -31.234375 C 19.441406 -31.191406 22.238281 -30.273438 24.375 -28.484375 C 26.507812 -26.691406 27.597656 -24.300781 27.640625 -21.3125 L 19.703125 -21.34375 C 19.734375 -23.96875 18.425781 -25.300781 15.78125 -25.34375 C 14.539062 -25.34375 13.460938 -25.03125 12.546875 -24.40625 C 11.628906 -23.78125 11.066406 -22.9375 10.859375 -21.875 C 10.578125 -20.363281 11.71875 -19.296875 14.28125 -18.671875 L 15.421875 -18.421875 C 18.023438 -17.796875 20.015625 -17.082031 21.390625 -16.28125 C 22.773438 -15.476562 23.835938 -14.476562 24.578125 -13.28125 C 25.328125 -12.09375 25.675781 -10.671875 25.625 -9.015625 C 25.5625 -7.066406 24.929688 -5.363281 23.734375 -3.90625 C 22.535156 -2.457031 20.890625 -1.332031 18.796875 -0.53125 C 16.710938 0.257812 14.519531 0.625 12.21875 0.5625 C 8.8125 0.53125 5.972656 -0.441406 3.703125 -2.359375 C 1.441406 -4.285156 0.289062 -6.769531 0.25 -9.8125 L 7.796875 -9.75 C 7.867188 -6.820312 9.4375 -5.335938 12.5 -5.296875 C 13.96875 -5.296875 15.179688 -5.597656 16.140625 -6.203125 C 17.097656 -6.804688 17.671875 -7.617188 17.859375 -8.640625 Z M 17.859375 -8.640625 "/></g></g></g><g fill="#fefefe" fill-opacity="1"><g transform="translate(97.660646, 100.508669)"><g><path d="M 0.3125 0 L 3.421875 -14.65625 L 7.453125 -14.65625 C 10.054688 -14.65625 11.878906 -14.019531 12.921875 -12.75 C 13.960938 -11.476562 14.269531 -9.5625 13.84375 -7 C 13.582031 -5.4375 13.019531 -4.132812 12.15625 -3.09375 C 11.289062 -2.050781 10.191406 -1.273438 8.859375 -0.765625 C 7.523438 -0.253906 6.023438 0 4.359375 0 Z M 2.78125 -1.734375 L 4.671875 -1.734375 C 5.867188 -1.734375 6.957031 -1.90625 7.9375 -2.25 C 8.914062 -2.59375 9.738281 -3.160156 10.40625 -3.953125 C 11.082031 -4.742188 11.535156 -5.800781 11.765625 -7.125 C 12.109375 -9.1875 11.90625 -10.664062 11.15625 -11.5625 C 10.40625 -12.457031 9.023438 -12.90625 7.015625 -12.90625 L 5.15625 -12.90625 Z M 2.78125 -1.734375 "/></g></g></g><g fill="#fefefe" fill-opacity="1"><g transform="translate(112.441075, 100.508669)"><g><path d="M 5.03125 -12.96875 C 4.65625 -12.96875 4.332031 -13.101562 4.0625 -13.375 C 3.789062 -13.644531 3.65625 -13.960938 3.65625 -14.328125 C 3.65625 -14.703125 3.789062 -15.023438 4.0625 -15.296875 C 4.332031 -15.566406 4.65625 -15.703125 5.03125 -15.703125 C 5.40625 -15.703125 5.726562 -15.566406 6 -15.296875 C 6.269531 -15.023438 6.40625 -14.703125 6.40625 -14.328125 C 6.40625 -13.960938 6.269531 -13.644531 6 -13.375 C 5.726562 -13.101562 5.40625 -12.96875 5.03125 -12.96875 Z M 1.015625 0 L 3 -9.390625 L 1.25 -9.390625 L 1.5625 -10.875 L 5.203125 -10.875 L 2.890625 0 Z M 1.015625 0 "/></g></g></g><g fill="#fefefe" fill-opacity="1"><g transform="translate(118.362017, 100.508669)"><g><path d="M 3.953125 4.171875 C 3.023438 4.171875 2.1875 3.953125 1.4375 3.515625 C 0.6875 3.078125 0.175781 2.476562 -0.09375 1.71875 L 1.890625 1.15625 C 1.960938 1.507812 2.179688 1.832031 2.546875 2.125 C 2.910156 2.414062 3.421875 2.5625 4.078125 2.5625 C 4.859375 2.5625 5.472656 2.425781 5.921875 2.15625 C 6.378906 1.882812 6.722656 1.515625 6.953125 1.046875 C 7.191406 0.578125 7.375 0.0625 7.5 -0.5 L 7.78125 -1.75 C 7.414062 -1.28125 6.96875 -0.925781 6.4375 -0.6875 C 5.914062 -0.457031 5.367188 -0.34375 4.796875 -0.34375 C 4.128906 -0.34375 3.476562 -0.507812 2.84375 -0.84375 C 2.21875 -1.175781 1.703125 -1.675781 1.296875 -2.34375 C 0.898438 -3.019531 0.703125 -3.863281 0.703125 -4.875 C 0.703125 -6 0.910156 -7.03125 1.328125 -7.96875 C 1.742188 -8.914062 2.332031 -9.671875 3.09375 -10.234375 C 3.863281 -10.804688 4.773438 -11.09375 5.828125 -11.09375 C 6.609375 -11.09375 7.316406 -10.921875 7.953125 -10.578125 C 8.597656 -10.234375 9.0625 -9.765625 9.34375 -9.171875 L 10.21875 -10.875 L 11.578125 -10.875 C 11.234375 -9.238281 10.890625 -7.601562 10.546875 -5.96875 C 10.203125 -4.332031 9.851562 -2.6875 9.5 -1.03125 C 9.425781 -0.707031 9.335938 -0.320312 9.234375 0.125 C 9.128906 0.582031 8.972656 1.046875 8.765625 1.515625 C 8.554688 1.984375 8.253906 2.414062 7.859375 2.8125 C 7.472656 3.21875 6.960938 3.546875 6.328125 3.796875 C 5.691406 4.046875 4.898438 4.171875 3.953125 4.171875 Z M 5.4375 -1.953125 C 6.125 -1.953125 6.71875 -2.179688 7.21875 -2.640625 C 7.71875 -3.097656 8.101562 -3.675781 8.375 -4.375 C 8.644531 -5.070312 8.78125 -5.78125 8.78125 -6.5 C 8.78125 -7.476562 8.507812 -8.21875 7.96875 -8.71875 C 7.425781 -9.226562 6.789062 -9.484375 6.0625 -9.484375 C 5.3125 -9.484375 4.679688 -9.257812 4.171875 -8.8125 C 3.671875 -8.375 3.289062 -7.8125 3.03125 -7.125 C 2.78125 -6.4375 2.65625 -5.710938 2.65625 -4.953125 C 2.65625 -4.015625 2.910156 -3.28125 3.421875 -2.75 C 3.929688 -2.21875 4.601562 -1.953125 5.4375 -1.953125 Z M 5.4375 -1.953125 "/></g></g></g><g fill="#fefefe" fill-opacity="1"><g transform="translate(130.532853, 100.508669)"><g><path d="M 5.03125 -12.96875 C 4.65625 -12.96875 4.332031 -13.101562 4.0625 -13.375 C 3.789062 -13.644531 3.65625 -13.960938 3.65625 -14.328125 C 3.65625 -14.703125 3.789062 -15.023438 4.0625 -15.296875 C 4.332031 -15.566406 4.65625 -15.703125 5.03125 -15.703125 C 5.40625 -15.703125 5.726562 -15.566406 6 -15.296875 C 6.269531 -15.023438 6.40625 -14.703125 6.40625 -14.328125 C 6.40625 -13.960938 6.269531 -13.644531 6 -13.375 C 5.726562 -13.101562 5.40625 -12.96875 5.03125 -12.96875 Z M 1.015625 0 L 3 -9.390625 L 1.25 -9.390625 L 1.5625 -10.875 L 5.203125 -10.875 L 2.890625 0 Z M 1.015625 0 "/></g></g></g><g fill="#fefefe" fill-opacity="1"><g transform="translate(136.453795, 100.508669)"><g><path d="M 3.515625 0 C 2.660156 0 2.078125 -0.117188 1.765625 -0.359375 C 1.453125 -0.597656 1.296875 -0.96875 1.296875 -1.46875 C 1.296875 -1.789062 1.367188 -2.289062 1.515625 -2.96875 L 2.890625 -9.390625 L 1.078125 -9.390625 L 1.375 -10.875 L 3.203125 -10.875 L 3.796875 -13.59375 L 5.6875 -13.59375 L 5.09375 -10.875 L 7.171875 -10.875 L 6.859375 -9.390625 L 4.78125 -9.390625 L 3.515625 -3.484375 C 3.453125 -3.222656 3.398438 -2.984375 3.359375 -2.765625 C 3.328125 -2.554688 3.3125 -2.394531 3.3125 -2.28125 C 3.3125 -2.050781 3.375 -1.882812 3.5 -1.78125 C 3.632812 -1.6875 3.882812 -1.640625 4.25 -1.640625 L 5.21875 -1.640625 L 4.875 0 Z M 3.515625 0 "/></g></g></g><g fill="#fefefe" fill-opacity="1"><g transform="translate(143.558934, 100.508669)"><g><path d="M 3.375 0.265625 C 2.4375 0.265625 1.65625 0.0078125 1.03125 -0.5 C 0.414062 -1.007812 0.109375 -1.695312 0.109375 -2.5625 C 0.109375 -3.289062 0.300781 -3.894531 0.6875 -4.375 C 1.070312 -4.863281 1.578125 -5.253906 2.203125 -5.546875 C 2.828125 -5.835938 3.5 -6.0625 4.21875 -6.21875 C 4.945312 -6.375 5.65625 -6.488281 6.34375 -6.5625 C 7.03125 -6.632812 7.617188 -6.695312 8.109375 -6.75 C 8.160156 -6.957031 8.195312 -7.148438 8.21875 -7.328125 C 8.25 -7.503906 8.265625 -7.671875 8.265625 -7.828125 C 8.265625 -8.984375 7.59375 -9.5625 6.25 -9.5625 C 5.582031 -9.5625 5.015625 -9.410156 4.546875 -9.109375 C 4.078125 -8.816406 3.71875 -8.40625 3.46875 -7.875 L 1.828125 -8.375 C 2.203125 -9.195312 2.753906 -9.847656 3.484375 -10.328125 C 4.210938 -10.816406 5.109375 -11.0625 6.171875 -11.0625 C 7.441406 -11.0625 8.421875 -10.800781 9.109375 -10.28125 C 9.796875 -9.769531 10.140625 -8.984375 10.140625 -7.921875 C 10.140625 -7.671875 10.117188 -7.421875 10.078125 -7.171875 C 10.046875 -6.921875 9.976562 -6.566406 9.875 -6.109375 C 9.78125 -5.660156 9.640625 -5 9.453125 -4.125 C 9.265625 -3.21875 9.132812 -2.429688 9.0625 -1.765625 C 9 -1.097656 8.960938 -0.507812 8.953125 0 L 7.21875 0 L 7.125 -1.375 C 6.644531 -0.84375 6.113281 -0.4375 5.53125 -0.15625 C 4.957031 0.125 4.238281 0.265625 3.375 0.265625 Z M 3.96875 -1.25 C 4.96875 -1.25 5.820312 -1.582031 6.53125 -2.25 C 7.238281 -2.914062 7.6875 -3.800781 7.875 -4.90625 L 7.9375 -5.28125 C 6.726562 -5.164062 5.691406 -5.03125 4.828125 -4.875 C 3.960938 -4.726562 3.300781 -4.492188 2.84375 -4.171875 C 2.394531 -3.847656 2.171875 -3.375 2.171875 -2.75 C 2.171875 -2.25 2.34375 -1.875 2.6875 -1.625 C 3.039062 -1.375 3.46875 -1.25 3.96875 -1.25 Z M 3.96875 -1.25 "/></g></g></g><g fill="#fefefe" fill-opacity="1"><g transform="translate(154.98416, 100.508669)"><g><path d="M 2.765625 0 C 1.910156 0 1.332031 -0.117188 1.03125 -0.359375 C 0.738281 -0.597656 0.59375 -0.96875 0.59375 -1.46875 C 0.59375 -1.863281 0.644531 -2.289062 0.75 -2.75 L 3.265625 -14.65625 L 5.15625 -14.65625 L 2.703125 -3.078125 C 2.671875 -2.910156 2.644531 -2.757812 2.625 -2.625 C 2.601562 -2.5 2.59375 -2.382812 2.59375 -2.28125 C 2.59375 -2.0625 2.65625 -1.898438 2.78125 -1.796875 C 2.914062 -1.691406 3.164062 -1.640625 3.53125 -1.640625 L 4.34375 -1.640625 L 4 0 Z M 2.765625 0 "/></g></g></g><g fill="#fefefe" fill-opacity="1"><g transform="translate(160.663875, 100.508669)"><g/></g></g><g fill="#fefefe" fill-opacity="1"><g transform="translate(166.804117, 100.508669)"><g><path d="M -1.140625 0 L 7.453125 -14.65625 L 10 -14.65625 L 12.390625 0 L 10.140625 0 L 9.671875 -3.203125 L 3.046875 -3.203125 L 1.234375 0 Z M 4.03125 -4.953125 L 9.4375 -4.953125 L 8.359375 -12.5625 Z M 4.03125 -4.953125 "/></g></g></g><g fill="#fefefe" fill-opacity="1"><g transform="translate(180.553868, 100.508669)"><g><path d="M 4.5 0.265625 C 3.675781 0.265625 2.972656 0.0664062 2.390625 -0.328125 C 1.804688 -0.722656 1.359375 -1.265625 1.046875 -1.953125 C 0.742188 -2.648438 0.59375 -3.445312 0.59375 -4.34375 C 0.59375 -5.21875 0.71875 -6.050781 0.96875 -6.84375 C 1.21875 -7.644531 1.570312 -8.363281 2.03125 -9 C 2.488281 -9.632812 3.046875 -10.132812 3.703125 -10.5 C 4.359375 -10.875 5.101562 -11.0625 5.9375 -11.0625 C 6.800781 -11.0625 7.523438 -10.835938 8.109375 -10.390625 C 8.703125 -9.941406 9.097656 -9.390625 9.296875 -8.734375 L 10.546875 -14.65625 L 12.4375 -14.65625 C 12.4375 -14.65625 12.394531 -14.457031 12.3125 -14.0625 C 12.238281 -13.675781 12.128906 -13.160156 11.984375 -12.515625 C 11.847656 -11.867188 11.695312 -11.15625 11.53125 -10.375 C 11.363281 -9.601562 11.191406 -8.816406 11.015625 -8.015625 C 10.847656 -7.222656 10.691406 -6.484375 10.546875 -5.796875 C 10.398438 -5.117188 10.285156 -4.5625 10.203125 -4.125 C 10.128906 -3.757812 10.03125 -3.21875 9.90625 -2.5 C 9.78125 -1.78125 9.710938 -0.945312 9.703125 0 L 7.921875 0 L 7.8125 -1.34375 C 7.445312 -0.875 7.003906 -0.488281 6.484375 -0.1875 C 5.960938 0.113281 5.300781 0.265625 4.5 0.265625 Z M 4.953125 -1.3125 C 5.710938 -1.3125 6.375 -1.535156 6.9375 -1.984375 C 7.5 -2.429688 7.9375 -3.023438 8.25 -3.765625 C 8.570312 -4.503906 8.734375 -5.304688 8.734375 -6.171875 C 8.734375 -7.171875 8.515625 -7.972656 8.078125 -8.578125 C 7.640625 -9.179688 6.992188 -9.484375 6.140625 -9.484375 C 5.378906 -9.484375 4.734375 -9.226562 4.203125 -8.71875 C 3.671875 -8.21875 3.265625 -7.570312 2.984375 -6.78125 C 2.703125 -6 2.5625 -5.191406 2.5625 -4.359375 C 2.5625 -3.335938 2.800781 -2.570312 3.28125 -2.0625 C 3.757812 -1.5625 4.316406 -1.3125 4.953125 -1.3125 Z M 4.953125 -1.3125 "/></g></g></g><g fill="#fefefe" fill-opacity="1"><g transform="translate(192.724703, 100.508669)"><g><path d="M 2.515625 0 L 0.9375 -10.875 L 2.859375 -10.875 L 3.890625 -2.40625 L 8.53125 -10.875 L 10.6875 -10.875 L 4.46875 0 Z M 2.515625 0 "/></g></g></g><g fill="#fefefe" fill-opacity="1"><g transform="translate(202.461363, 100.508669)"><g><path d="M 5.21875 0.265625 C 3.789062 0.265625 2.660156 -0.148438 1.828125 -0.984375 C 1.003906 -1.816406 0.59375 -2.941406 0.59375 -4.359375 C 0.59375 -5.640625 0.84375 -6.78125 1.34375 -7.78125 C 1.851562 -8.789062 2.570312 -9.585938 3.5 -10.171875 C 4.425781 -10.765625 5.519531 -11.0625 6.78125 -11.0625 C 7.757812 -11.0625 8.566406 -10.863281 9.203125 -10.46875 C 9.847656 -10.070312 10.335938 -9.53125 10.671875 -8.84375 C 11.003906 -8.164062 11.171875 -7.410156 11.171875 -6.578125 C 11.171875 -6.054688 11.101562 -5.507812 10.96875 -4.9375 L 2.546875 -4.9375 C 2.523438 -4.832031 2.515625 -4.726562 2.515625 -4.625 C 2.515625 -4.519531 2.515625 -4.421875 2.515625 -4.328125 C 2.515625 -3.578125 2.65625 -2.984375 2.9375 -2.546875 C 3.226562 -2.117188 3.597656 -1.8125 4.046875 -1.625 C 4.503906 -1.445312 4.96875 -1.359375 5.4375 -1.359375 C 6.050781 -1.359375 6.578125 -1.457031 7.015625 -1.65625 C 7.453125 -1.851562 7.828125 -2.113281 8.140625 -2.4375 L 9.84375 -1.90625 C 9.351562 -1.257812 8.722656 -0.734375 7.953125 -0.328125 C 7.179688 0.0664062 6.269531 0.265625 5.21875 0.265625 Z M 2.8125 -6.421875 L 9.234375 -6.421875 C 9.242188 -6.492188 9.25 -6.5625 9.25 -6.625 C 9.25 -6.6875 9.25 -6.742188 9.25 -6.796875 C 9.25 -7.234375 9.15625 -7.65625 8.96875 -8.0625 C 8.789062 -8.476562 8.5 -8.816406 8.09375 -9.078125 C 7.695312 -9.347656 7.171875 -9.484375 6.515625 -9.484375 C 5.972656 -9.484375 5.445312 -9.363281 4.9375 -9.125 C 4.425781 -8.894531 3.976562 -8.550781 3.59375 -8.09375 C 3.21875 -7.644531 2.957031 -7.085938 2.8125 -6.421875 Z M 2.8125 -6.421875 "/></g></g></g><g fill="#fefefe" fill-opacity="1"><g transform="translate(214.347117, 100.508669)"><g><path d="M 0.171875 0 L 2.484375 -10.875 L 3.859375 -10.875 L 4.03125 -8.84375 C 4.488281 -9.488281 5.019531 -10.019531 5.625 -10.4375 C 6.226562 -10.851562 7.070312 -11.0625 8.15625 -11.0625 L 8.40625 -11.0625 L 7.984375 -9.109375 C 7.578125 -9.117188 7.195312 -9.09375 6.84375 -9.03125 C 5.726562 -8.863281 4.875 -8.375 4.28125 -7.5625 C 3.695312 -6.75 3.269531 -5.726562 3 -4.5 L 2.0625 0 Z M 0.171875 0 "/></g></g></g><g fill="#fefefe" fill-opacity="1"><g transform="translate(222.088202, 100.508669)"><g><path d="M 3.515625 0 C 2.660156 0 2.078125 -0.117188 1.765625 -0.359375 C 1.453125 -0.597656 1.296875 -0.96875 1.296875 -1.46875 C 1.296875 -1.789062 1.367188 -2.289062 1.515625 -2.96875 L 2.890625 -9.390625 L 1.078125 -9.390625 L 1.375 -10.875 L 3.203125 -10.875 L 3.796875 -13.59375 L 5.6875 -13.59375 L 5.09375 -10.875 L 7.171875 -10.875 L 6.859375 -9.390625 L 4.78125 -9.390625 L 3.515625 -3.484375 C 3.453125 -3.222656 3.398438 -2.984375 3.359375 -2.765625 C 3.328125 -2.554688 3.3125 -2.394531 3.3125 -2.28125 C 3.3125 -2.050781 3.375 -1.882812 3.5 -1.78125 C 3.632812 -1.6875 3.882812 -1.640625 4.25 -1.640625 L 5.21875 -1.640625 L 4.875 0 Z M 3.515625 0 "/></g></g></g><g fill="#fefefe" fill-opacity="1"><g transform="translate(229.193341, 100.508669)"><g><path d="M 5.03125 -12.96875 C 4.65625 -12.96875 4.332031 -13.101562 4.0625 -13.375 C 3.789062 -13.644531 3.65625 -13.960938 3.65625 -14.328125 C 3.65625 -14.703125 3.789062 -15.023438 4.0625 -15.296875 C 4.332031 -15.566406 4.65625 -15.703125 5.03125 -15.703125 C 5.40625 -15.703125 5.726562 -15.566406 6 -15.296875 C 6.269531 -15.023438 6.40625 -14.703125 6.40625 -14.328125 C 6.40625 -13.960938 6.269531 -13.644531 6 -13.375 C 5.726562 -13.101562 5.40625 -12.96875 5.03125 -12.96875 Z M 1.015625 0 L 3 -9.390625 L 1.25 -9.390625 L 1.5625 -10.875 L 5.203125 -10.875 L 2.890625 0 Z M 1.015625 0 "/></g></g></g><g fill="#fefefe" fill-opacity="1"><g transform="translate(235.114283, 100.508669)"><g><path d="M 4.671875 0.265625 C 3.578125 0.265625 2.65625 0.0507812 1.90625 -0.375 C 1.164062 -0.800781 0.601562 -1.503906 0.21875 -2.484375 L 2.109375 -3.109375 C 2.222656 -2.472656 2.539062 -2 3.0625 -1.6875 C 3.59375 -1.382812 4.148438 -1.234375 4.734375 -1.234375 C 5.335938 -1.234375 5.882812 -1.382812 6.375 -1.6875 C 6.875 -2 7.125 -2.4375 7.125 -3 C 7.125 -3.414062 6.976562 -3.734375 6.6875 -3.953125 C 6.394531 -4.179688 6.019531 -4.367188 5.5625 -4.515625 C 5.101562 -4.660156 4.613281 -4.800781 4.09375 -4.9375 C 3.582031 -5.082031 3.097656 -5.265625 2.640625 -5.484375 C 2.179688 -5.710938 1.804688 -6.023438 1.515625 -6.421875 C 1.222656 -6.816406 1.078125 -7.34375 1.078125 -8 C 1.078125 -8.6875 1.28125 -9.253906 1.6875 -9.703125 C 2.09375 -10.148438 2.613281 -10.488281 3.25 -10.71875 C 3.894531 -10.945312 4.566406 -11.0625 5.265625 -11.0625 C 5.867188 -11.0625 6.453125 -10.972656 7.015625 -10.796875 C 7.585938 -10.628906 8.09375 -10.378906 8.53125 -10.046875 C 8.96875 -9.722656 9.273438 -9.3125 9.453125 -8.8125 L 7.703125 -8.203125 C 7.554688 -8.640625 7.222656 -8.972656 6.703125 -9.203125 C 6.191406 -9.429688 5.660156 -9.546875 5.109375 -9.546875 C 4.554688 -9.546875 4.054688 -9.425781 3.609375 -9.1875 C 3.160156 -8.957031 2.9375 -8.597656 2.9375 -8.109375 C 2.9375 -7.722656 3.082031 -7.414062 3.375 -7.1875 C 3.664062 -6.957031 4.046875 -6.769531 4.515625 -6.625 C 4.984375 -6.476562 5.476562 -6.332031 6 -6.1875 C 6.519531 -6.050781 7.015625 -5.863281 7.484375 -5.625 C 7.953125 -5.394531 8.332031 -5.085938 8.625 -4.703125 C 8.914062 -4.316406 9.0625 -3.796875 9.0625 -3.140625 C 9.0625 -2.390625 8.863281 -1.757812 8.46875 -1.25 C 8.070312 -0.75 7.546875 -0.367188 6.890625 -0.109375 C 6.234375 0.140625 5.492188 0.265625 4.671875 0.265625 Z M 4.671875 0.265625 "/></g></g></g><g fill="#fefefe" fill-opacity="1"><g transform="translate(245.618481, 100.508669)"><g><path d="M 5.03125 -12.96875 C 4.65625 -12.96875 4.332031 -13.101562 4.0625 -13.375 C 3.789062 -13.644531 3.65625 -13.960938 3.65625 -14.328125 C 3.65625 -14.703125 3.789062 -15.023438 4.0625 -15.296875 C 4.332031 -15.566406 4.65625 -15.703125 5.03125 -15.703125 C 5.40625 -15.703125 5.726562 -15.566406 6 -15.296875 C 6.269531 -15.023438 6.40625 -14.703125 6.40625 -14.328125 C 6.40625 -13.960938 6.269531 -13.644531 6 -13.375 C 5.726562 -13.101562 5.40625 -12.96875 5.03125 -12.96875 Z M 1.015625 0 L 3 -9.390625 L 1.25 -9.390625 L 1.5625 -10.875 L 5.203125 -10.875 L 2.890625 0 Z M 1.015625 0 "/></g></g></g><g fill="#fefefe" fill-opacity="1"><g transform="translate(251.539423, 100.508669)"><g><path d="M 0.171875 0 L 2.484375 -10.875 L 3.890625 -10.875 L 4.015625 -9.375 C 4.378906 -9.832031 4.859375 -10.226562 5.453125 -10.5625 C 6.046875 -10.894531 6.832031 -11.0625 7.8125 -11.0625 C 8.726562 -11.0625 9.445312 -10.8125 9.96875 -10.3125 C 10.488281 -9.8125 10.75 -9.039062 10.75 -8 C 10.75 -7.507812 10.679688 -6.941406 10.546875 -6.296875 L 9.1875 0 L 7.328125 0 L 8.625 -6.125 C 8.75 -6.757812 8.8125 -7.285156 8.8125 -7.703125 C 8.8125 -8.347656 8.664062 -8.796875 8.375 -9.046875 C 8.082031 -9.304688 7.625 -9.4375 7 -9.4375 C 6.46875 -9.4375 5.953125 -9.316406 5.453125 -9.078125 C 4.960938 -8.847656 4.519531 -8.453125 4.125 -7.890625 C 3.738281 -7.335938 3.445312 -6.585938 3.25 -5.640625 L 2.0625 0 Z M 0.171875 0 "/></g></g></g><g fill="#fefefe" fill-opacity="1"><g transform="translate(263.600608, 100.508669)"><g><path d="M 3.953125 4.171875 C 3.023438 4.171875 2.1875 3.953125 1.4375 3.515625 C 0.6875 3.078125 0.175781 2.476562 -0.09375 1.71875 L 1.890625 1.15625 C 1.960938 1.507812 2.179688 1.832031 2.546875 2.125 C 2.910156 2.414062 3.421875 2.5625 4.078125 2.5625 C 4.859375 2.5625 5.472656 2.425781 5.921875 2.15625 C 6.378906 1.882812 6.722656 1.515625 6.953125 1.046875 C 7.191406 0.578125 7.375 0.0625 7.5 -0.5 L 7.78125 -1.75 C 7.414062 -1.28125 6.96875 -0.925781 6.4375 -0.6875 C 5.914062 -0.457031 5.367188 -0.34375 4.796875 -0.34375 C 4.128906 -0.34375 3.476562 -0.507812 2.84375 -0.84375 C 2.21875 -1.175781 1.703125 -1.675781 1.296875 -2.34375 C 0.898438 -3.019531 0.703125 -3.863281 0.703125 -4.875 C 0.703125 -6 0.910156 -7.03125 1.328125 -7.96875 C 1.742188 -8.914062 2.332031 -9.671875 3.09375 -10.234375 C 3.863281 -10.804688 4.773438 -11.09375 5.828125 -11.09375 C 6.609375 -11.09375 7.316406 -10.921875 7.953125 -10.578125 C 8.597656 -10.234375 9.0625 -9.765625 9.34375 -9.171875 L 10.21875 -10.875 L 11.578125 -10.875 C 11.234375 -9.238281 10.890625 -7.601562 10.546875 -5.96875 C 10.203125 -4.332031 9.851562 -2.6875 9.5 -1.03125 C 9.425781 -0.707031 9.335938 -0.320312 9.234375 0.125 C 9.128906 0.582031 8.972656 1.046875 8.765625 1.515625 C 8.554688 1.984375 8.253906 2.414062 7.859375 2.8125 C 7.472656 3.21875 6.960938 3.546875 6.328125 3.796875 C 5.691406 4.046875 4.898438 4.171875 3.953125 4.171875 Z M 5.4375 -1.953125 C 6.125 -1.953125 6.71875 -2.179688 7.21875 -2.640625 C 7.71875 -3.097656 8.101562 -3.675781 8.375 -4.375 C 8.644531 -5.070312 8.78125 -5.78125 8.78125 -6.5 C 8.78125 -7.476562 8.507812 -8.21875 7.96875 -8.71875 C 7.425781 -9.226562 6.789062 -9.484375 6.0625 -9.484375 C 5.3125 -9.484375 4.679688 -9.257812 4.171875 -8.8125 C 3.671875 -8.375 3.289062 -7.8125 3.03125 -7.125 C 2.78125 -6.4375 2.65625 -5.710938 2.65625 -4.953125 C 2.65625 -4.015625 2.910156 -3.28125 3.421875 -2.75 C 3.929688 -2.21875 4.601562 -1.953125 5.4375 -1.953125 Z M 5.4375 -1.953125 "/></g></g></g></svg>